<mxfile host="app.diagrams.net" modified="2024-06-28T11:16:26.630Z" agent="Mozilla/5.0 (iPhone; CPU iPhone OS 16_3 like Mac OS X) AppleWebKit/605.1.15 (KHTML, like Gecko) Version/16.3 Mobile/15E148 Safari/604.1" version="24.6.4" etag="34p97NwxhoH2jLet0D7t" type="github">
  <diagram name="第 1 页" id="ozk4nZz_5CPPhHkCWyKR">
    <mxGraphModel>
      <root>
        <mxCell id="0" />
        <mxCell id="1" parent="0" />
      </root>
    </mxGraphModel>
  </diagram>
</mxfile>
